<?xml version="1.0" encoding="utf-8"?>
<!-- Generator: Adobe Illustrator 17.1.0, SVG Export Plug-In . SVG Version: 6.00 Build 0)  -->
<!DOCTYPE svg PUBLIC "-//W3C//DTD SVG 1.1//EN" "http://www.w3.org/Graphics/SVG/1.1/DTD/svg11.dtd">
<svg version="1.1" id="Layer_1" xmlns="http://www.w3.org/2000/svg" xmlns:xlink="http://www.w3.org/1999/xlink" x="0px" y="0px"
	 viewBox="0 0 216.7 37.4" enable-background="new 0 0 216.7 37.4" xml:space="preserve">
<path fill="#FFFFFF" d="M5.4,36.1c-0.2,0.4-0.6,0.8-1.2,0.8H1c-0.8,0-1.2-0.7-0.9-1.4L16,0.6C16.2,0.3,16.6,0,16.9,0h0.5
	c0.3,0,0.7,0.3,0.9,0.6l15.8,35c0.3,0.7-0.1,1.4-0.9,1.4H30c-0.6,0-1-0.3-1.2-0.8L17.2,10.3H17C17,10.3,6.5,33.7,5.4,36.1z"/>
<path fill="#FFFFFF" d="M56.8,35.9c0,0.5,0.4,1,1,1h18.9c0.6,0,1-0.5,1-1v-3.1c0-0.5-0.4-1-1-1H62.6v-30c0-0.5-0.5-1-1-1h-3.8
	c-0.6,0-1,0.5-1,1V35.9z"/>
<path fill="#FFFFFF" d="M102.9,35.9c0,0.5,0.5,1,1,1h3.8c0.5,0,1-0.5,1-1v-30h8.4c0.6,0,1-0.5,1-1V1.8c0-0.5-0.4-1-1-1H94.6
	c-0.6,0-1,0.5-1,1v3.1c0,0.5,0.4,1,1,1h8.4V35.9z"/>
<path fill="#FFFFFF" d="M140.4,23.3c0,7.9,6.2,14.1,14.4,14.1c8.2,0,14.5-6.2,14.5-14.1V1.7c0-0.5-0.5-1-1-1h-3.8c-0.6,0-1,0.5-1,1
	v21.3c0,5.1-3.3,9.2-8.7,9.2c-5.3,0-8.6-4.1-8.6-9.3V1.7c0-0.5-0.4-1-1-1h-3.8c-0.5,0-1,0.5-1,1V23.3z"/>
<path fill="#FFFFFF" d="M194,33.3c0.8,0.8,4.8,4.1,11.1,4.1c6.7,0,11.6-4.4,11.6-9.8c0-6.3-5.1-9.2-11.1-11.6
	c-4.3-1.8-6.6-3.6-6.6-6.6c0-1.9,1.5-4.7,5.9-4.7c3,0,6.6,2.4,7,2.6c0.7,0.5,1.4,0.2,1.8-0.5c0.4-0.6,0.9-1.4,1.3-2
	c0.5-0.8,0.1-1.5-0.3-1.8c-0.5-0.4-4.4-3.1-9.6-3.1c-8.2,0-11.4,5.6-11.4,9.6c0,6,4.1,8.8,9.4,11c5.1,2.1,7.8,4.1,7.8,7.2
	c0,2.7-2.3,4.8-5.9,4.8c-4,0-8-3.3-8.3-3.6c-0.6-0.5-1.3-0.3-1.8,0.4c-0.5,0.7-0.9,1.5-1.3,2.1C193.2,32.6,193.5,32.9,194,33.3z"/>
</svg>
